<svg id="Layer_1" data-name="Layer 1" xmlns="http://www.w3.org/2000/svg" viewBox="0 0 241.21 253.23"><defs><style>.cls-1{fill:#8b0000;}.cls-2{fill:#fff;}</style></defs><path class="cls-1" d="M172.71,46,158.18,31.46,143.64,46l14.54,18.76Zm-14.54-7.56,8,8-8,10.3-8-10.3Z"/><path class="cls-1" d="M229.07,70.76,214.54,56.22,201.61,69.15l-1.6,1.6,14.52,18.77ZM214.54,63.2l8,8-8,10.29-8-10.29Z"/><path class="cls-1" d="M96.1,46,81.56,31.46,67,46,81.56,64.75ZM81.56,38.43l8,8-8,10.3-8-10.3Z"/><path class="cls-1" d="M39.74,70.75,25.2,56.21,12.27,69.15l-1.6,1.61L25.2,89.52ZM25.2,63.2l8,8-8,10.29-8-10.29Z"/><path class="cls-1" d="M217.41,103l-1.19-1.59L182.72,57l-3.05-4.06-3.1,4L158.21,80.6,124,35.13l-.26-.34-.94-1.26-1.22-1.61,13.53-17.46L120.6,0,106.14,14.46l13.53,17.46-1.21,1.61-.95,1.26-.26.35L83,80.6,64.65,56.91l-3.11-4-3,4.06L25,101.41,23.8,103,0,75.68l25.22,71.66,1.2,3.4V171.2H214.79V150.77l1.21-3.43,25.21-71.66ZM33.29,164.32v-8.17H207.92v8.17ZM153.56,85.85l-18.65,24.09,9.13,9.11L120.6,142.49,97.17,119.05l9.13-9.11L87.65,85.85,120.6,42.09Zm-4.34,38.39,22.64,22.65H126.57Zm-57.23,0,22.65,22.65H69.35Zm58.61-8.34h0l-1.37,1.36-1.37-1.36-6.37-6.38,15.45-20L158.16,88l1.21,1.61,7.54,10Zm-50.86-6.38-6.38,6.38L92,117.26l-1.37-1.36L74.3,99.57l7.54-10L83.05,88l1.23,1.59Zm79.16,34-24.5-24.51,17.43-17.43,1.6-1.58L162.78,85.92l16.81-21.7,31.73,42.12ZM78.43,85.92,67.79,100l19,19-24.5,24.51L29.88,106.34,61.62,64.22Zm-23,61H30.28L13.2,98.34Zm130.25,0L228,98.34l-17.08,48.55ZM120.6,7l7.91,7.9-7.91,10.2-7.89-10.2Z"/><path class="cls-2" d="M25.37,186.49H41.21c4.47,0,8,1.32,10.26,3.56a10.73,10.73,0,0,1,2.94,7.66v.11c0,5.83-3.5,9.34-8.47,10.76L55.53,222H48.17l-8.73-12.38H31.62V222H25.37Zm15.39,17.62c4.46,0,7.31-2.33,7.31-5.94v-.1c0-3.81-2.74-5.89-7.36-5.89H31.62v11.93Z"/><path class="cls-2" d="M68.18,186.49H94.53v5.59H74.42v9.24H92.24v5.58H74.42v9.55H94.78V222H68.18Z"/><path class="cls-2" d="M118.75,208l-14.12-21.53H112l10,15.74,10-15.74h7.16L125,207.87V222h-6.29Z"/><path class="cls-2" d="M150.74,186.49h26.35v5.59H157v9.24H174.8v5.58H157v9.55h20.36V222h-26.6Z"/><path class="cls-2" d="M188.46,216.85l3.76-4.46c3.4,2.94,6.8,4.62,11.22,4.62,3.86,0,6.3-1.78,6.3-4.47v-.1c0-2.54-1.42-3.91-8-5.43-7.57-1.83-11.83-4.07-11.83-10.62v-.1c0-6.09,5.07-10.3,12.13-10.3a19.73,19.73,0,0,1,12.9,4.46l-3.35,4.72c-3.2-2.38-6.4-3.65-9.65-3.65-3.66,0-5.79,1.88-5.79,4.21v.1c0,2.75,1.63,4,8.43,5.59,7.51,1.83,11.42,4.52,11.42,10.41v.1c0,6.65-5.23,10.61-12.69,10.61A21.91,21.91,0,0,1,188.46,216.85Z"/><path class="cls-2" d="M37,249.53a10,10,0,0,1-7.49,3.57c-4.12,0-7.19-2.59-7.19-6.41v-.07c0-3,2-5.23,5.52-6.61-1.57-1.83-2.29-3.23-2.29-5v-.07c0-3,2.42-5.43,6-5.43a5.3,5.3,0,0,1,5.56,5.17v.07c0,2.91-2.06,4.77-5.39,5.95L37,246a29.83,29.83,0,0,0,2.74-5.1l2.13,1a31.66,31.66,0,0,1-3.3,5.75l4,4.09-2,1.51Zm-1.57-1.6-6.12-6.31c-3,1.11-4.38,3-4.38,4.9v.07c0,2.45,2,4.31,4.78,4.31A7.83,7.83,0,0,0,35.39,247.93Zm-.69-13.08v-.07a3.11,3.11,0,0,0-3.24-3.17,3.27,3.27,0,0,0-3.46,3.3V235c0,1.34.55,2.35,2.29,4.22C33.2,238.22,34.7,236.81,34.7,234.85Z"/><path class="cls-2" d="M50.07,229.88H66.52v2.38H52.65v8.18h12.4v2.35H52.65v10H50.07Z"/><path class="cls-2" d="M74.79,229.88h9.84a9,9,0,0,1,6.51,2.29,6.31,6.31,0,0,1,1.76,4.51v.06c0,3.8-2.61,6-6.21,6.68l7,9.35H90.55l-6.64-8.9H77.37v8.9H74.79Zm9.61,11.67c3.43,0,5.89-1.76,5.89-4.71v-.06c0-2.82-2.16-4.52-5.86-4.52H77.37v9.29Z"/><path class="cls-2" d="M101.92,229.88h2.59v22.89h-2.59Z"/><path class="cls-2" d="M114.48,229.88H131v2.35h-14v7.82h12.49v2.35H117.06v8h14.13v2.36H114.48Z"/><path class="cls-2" d="M139.66,229.88h2.42l14.42,18.34V229.88H159v22.89H157L142.17,234v18.77h-2.51Z"/><path class="cls-2" d="M168.76,229.88h7.94c7.2,0,12.17,4.94,12.17,11.38v.06c0,6.44-5,11.45-12.17,11.45h-7.94Zm7.94,20.5c5.79,0,9.48-3.92,9.48-9v-.07c0-5.07-3.69-9.06-9.48-9.06h-5.36v18.12Z"/><path class="cls-2" d="M195.76,249.43l1.61-1.89a10.9,10.9,0,0,0,7.84,3.23c3.08,0,5.11-1.63,5.11-3.89v-.06c0-2.13-1.15-3.34-6-4.35-5.26-1.15-7.68-2.85-7.68-6.61v-.06c0-3.6,3.17-6.25,7.52-6.25a11.94,11.94,0,0,1,8,2.81l-1.5,2a10,10,0,0,0-6.61-2.49c-3,0-4.87,1.64-4.87,3.7v.06c0,2.16,1.18,3.37,6.22,4.45s7.45,3,7.45,6.47v.07c0,3.92-3.27,6.48-7.81,6.48A13.37,13.37,0,0,1,195.76,249.43Z"/></svg>